<mxfile host="65bd71144e" modified="2020-12-16T14:58:30.293Z" agent="5.0 (Macintosh; Intel Mac OS X 11_0_0) AppleWebKit/537.36 (KHTML, like Gecko) Code/1.52.0 Chrome/83.0.4103.122 Electron/9.3.5 Safari/537.36" version="13.10.0" etag="9y6WzhknVbz0gdmTWr7w" type="embed">
    <diagram id="S34RnvO9AfkvKIwjWwlq" name="Page-1">
        <mxGraphModel dx="700" dy="648" grid="1" gridSize="10" guides="1" tooltips="1" connect="1" arrows="1" fold="1" page="1" pageScale="1" pageWidth="850" pageHeight="1100" math="0" shadow="0">
            <root>
                <mxCell id="0"/>
                <mxCell id="1" parent="0"/>
                <mxCell id="9" style="edgeStyle=orthogonalEdgeStyle;rounded=0;orthogonalLoop=1;jettySize=auto;html=1;fontSize=14;strokeWidth=3;shadow=1;curved=1;" edge="1" parent="1" source="2" target="3">
                    <mxGeometry relative="1" as="geometry">
                        <Array as="points">
                            <mxPoint x="320" y="260"/>
                            <mxPoint x="230" y="260"/>
                        </Array>
                    </mxGeometry>
                </mxCell>
                <mxCell id="10" style="edgeStyle=orthogonalEdgeStyle;curved=1;rounded=0;orthogonalLoop=1;jettySize=auto;html=1;shadow=1;strokeWidth=3;fontSize=14;" edge="1" parent="1" source="2" target="4">
                    <mxGeometry relative="1" as="geometry"/>
                </mxCell>
                <mxCell id="2" value="StateManagementBot" style="rounded=0;whiteSpace=wrap;html=1;fontSize=14;fontStyle=1;spacingTop=0;perimeterSpacing=0;" vertex="1" parent="1">
                    <mxGeometry x="250" y="170" width="160" height="50" as="geometry"/>
                </mxCell>
                <mxCell id="3" value="userProfile" style="rounded=0;whiteSpace=wrap;html=1;fontSize=14;fontStyle=1" vertex="1" parent="1">
                    <mxGeometry x="180" y="320" width="100" height="50" as="geometry"/>
                </mxCell>
                <mxCell id="8" value="" style="group" vertex="1" connectable="0" parent="1">
                    <mxGeometry x="350" y="320" width="220" height="160" as="geometry"/>
                </mxCell>
                <mxCell id="4" value="ConversationData" style="rounded=0;whiteSpace=wrap;html=1;fontSize=14;fontStyle=1;horizontal=1;verticalAlign=top;" vertex="1" parent="8">
                    <mxGeometry width="220" height="160" as="geometry"/>
                </mxCell>
                <mxCell id="5" value="ChannelId" style="rounded=1;whiteSpace=wrap;html=1;fontSize=14;" vertex="1" parent="8">
                    <mxGeometry x="15" y="30" width="190" height="30" as="geometry"/>
                </mxCell>
                <mxCell id="6" value="Timestamp&lt;span style=&quot;color: rgba(0 , 0 , 0 , 0) ; font-family: monospace ; font-size: 0px&quot;&gt;%3CmxGraphModel%3E%3Croot%3E%3CmxCell%20id%3D%220%22%2F%3E%3CmxCell%20id%3D%221%22%20parent%3D%220%22%2F%3E%3CmxCell%20id%3D%222%22%20value%3D%22ChannelId%22%20style%3D%22rounded%3D1%3BwhiteSpace%3Dwrap%3Bhtml%3D1%3BfontSize%3D14%3B%22%20vertex%3D%221%22%20parent%3D%221%22%3E%3CmxGeometry%20x%3D%22440%22%20y%3D%22320%22%20width%3D%22120%22%20height%3D%2230%22%20as%3D%22geometry%22%2F%3E%3C%2FmxCell%3E%3C%2Froot%3E%3C%2FmxGraphModel%3E&lt;/span&gt;" style="rounded=1;whiteSpace=wrap;html=1;fontSize=14;" vertex="1" parent="8">
                    <mxGeometry x="15" y="70" width="190" height="30" as="geometry"/>
                </mxCell>
                <mxCell id="11" value="PromptedUserForName" style="rounded=1;whiteSpace=wrap;html=1;fontSize=14;" vertex="1" parent="8">
                    <mxGeometry x="15" y="110" width="190" height="30" as="geometry"/>
                </mxCell>
            </root>
        </mxGraphModel>
    </diagram>
</mxfile>